<svg version="1.1" xmlns="http://www.w3.org/2000/svg" xmlns:xlink="http://www.w3.org/1999/xlink" viewBox="0 0 172 172"><g fill="none" fill-rule="none" stroke="none" stroke-width="1" stroke-linecap="butt" stroke-linejoin="miter" stroke-miterlimit="10" stroke-dasharray="" stroke-dashoffset="0" font-family="none" font-weight="none" font-size="none" text-anchor="none" style="mix-blend-mode: normal"><path d="M0,172v-172h172v172z" fill="none" fill-rule="nonzero"></path><g fill="currentColor"><path d="M85.32812,4.70313c44.67969,0 81.29688,36.28125 81.29688,81.29688c0,44.67969 -36.28125,81.29687 -81.29688,81.29687c-44.67969,0 -81.29687,-36.28125 -81.29687,-81.29687c0,-44.67969 36.28125,-81.29687 81.29687,-81.29687zM85.32812,13.77344c39.64063,0 71.89063,32.25 71.89063,71.89063c0,39.64063 -32.25,71.89063 -71.89063,71.89063c-39.64062,0 -71.89062,-32.25 -71.89062,-71.89062c0,-39.64062 32.25,-71.89063 71.89062,-71.89063z" fill-rule="evenodd"></path><path d="M114.21875,57.10938c1.00781,1.00781 1.34375,1.67969 2.01563,2.35156c0.33594,0.67187 0.67188,1.34375 1.00781,2.01562c0.33594,0.67188 0.33594,1.00781 0,1.67969c0,0.33594 -0.33594,1.00781 -0.67187,1.34375l-21.5,21.5l23.85156,23.85156c0.33594,0.33594 0.67188,0.67188 0.67188,1.00781c0,0.33594 0,1.00781 -0.33594,1.34375c-0.33594,0.67188 -0.67187,1.34375 -1.00781,2.01563c-0.67187,0.67188 -1.34375,1.67969 -2.01562,2.35156c-1.00781,1.00781 -1.67969,1.67969 -2.35156,2.01563c-0.67187,0.67188 -1.34375,1.00781 -2.01562,1.00781c-0.67187,0.33594 -1.00781,0.33594 -1.34375,0.33594c-0.33594,0 -0.67187,-0.33594 -1.00781,-0.67187l-23.85156,-23.85156l-21.5,21.5c-0.33594,0.33594 -0.67188,0.67188 -1.34375,0.67188c-0.33594,0 -1.00781,0 -1.67969,0c-0.67187,-0.33594 -1.34375,-0.67187 -2.01562,-1.00781c-0.67187,-0.33594 -1.34375,-1.00781 -2.35156,-2.01562c-0.67188,-0.67187 -1.34375,-1.67969 -2.01562,-2.35156c-0.33594,-0.67187 -0.67187,-1.34375 -1.00781,-2.01562c-0.33594,-0.67187 -0.33594,-1.00781 0,-1.67969c0,-0.33594 0.33594,-1.00781 0.67188,-1.34375l21.5,-21.5l-23.85156,-23.85156c-0.33594,-0.33594 -0.67187,-0.67187 -0.67187,-1.34375c0,-0.33594 0,-1.00781 0,-1.67969c0,-0.67187 0.67188,-1.34375 1.00781,-2.01562c0.67188,-0.67187 1.34375,-1.67969 2.01562,-2.35156c1.00781,-1.00781 1.67969,-1.67969 2.35156,-2.01562c0.67188,-0.33594 1.34375,-0.67187 2.01563,-1.00781c0.67187,0 1.00781,-0.33594 1.67969,0c0.33594,0 1.00781,0.33594 1.34375,0.67188l23.85156,23.85156l21.5,-21.5c0.33594,-0.33594 0.67188,-0.67188 1.34375,-0.67188c0.33594,0 1.00781,0 1.67969,0c0.67188,0 1.34375,0.33594 2.01562,1.00781c0.67188,0.33594 1.34375,1.00781 2.35156,2.01563z" fill-rule="nonzero"></path></g></g></svg>